<svg xmlns="http://www.w3.org/2000/svg" width="49" height="49" viewBox="0 0 49 49" fill="none">
  <path d="M12.1998 35.1303C13.8998 33.8303 15.7998 32.8057 17.8998 32.0563C19.9998 31.307 22.1998 30.9317 24.4998 30.9303C26.7998 30.929 28.9998 31.3043 31.0998 32.0563C33.1998 32.8083 35.0998 33.833 36.7998 35.1303C37.9664 33.7637 38.8751 32.2137 39.5258 30.4803C40.1764 28.747 40.5011 26.897 40.4998 24.9303C40.4998 20.497 38.9418 16.7217 35.8258 13.6043C32.7098 10.487 28.9344 8.929 24.4998 8.93033C20.0651 8.93166 16.2898 10.4903 13.1738 13.6063C10.0578 16.7223 8.49975 20.497 8.49975 24.9303C8.49975 26.897 8.82509 28.747 9.47575 30.4803C10.1264 32.2137 11.0344 33.7637 12.1998 35.1303ZM24.4998 26.9303C22.5331 26.9303 20.8744 26.2557 19.5238 24.9063C18.1731 23.557 17.4984 21.8983 17.4998 19.9303C17.5011 17.9623 18.1764 16.3037 19.5258 14.9543C20.8751 13.605 22.5331 12.9303 24.4998 12.9303C26.4664 12.9303 28.1251 13.6057 29.4758 14.9563C30.8264 16.307 31.5011 17.965 31.4998 19.9303C31.4984 21.8957 30.8238 23.5543 29.4758 24.9063C28.1278 26.2583 26.4691 26.933 24.4998 26.9303ZM24.4998 44.9303C21.7331 44.9303 19.1331 44.405 16.6998 43.3543C14.2664 42.3037 12.1498 40.879 10.3498 39.0803C8.54975 37.2817 7.12509 35.165 6.07575 32.7303C5.02642 30.2957 4.50109 27.6957 4.49975 24.9303C4.49842 22.165 5.02375 19.565 6.07575 17.1303C7.12775 14.6957 8.55242 12.579 10.3498 10.7803C12.1471 8.98166 14.2638 7.557 16.6998 6.50633C19.1358 5.45566 21.7358 4.93033 24.4998 4.93033C27.2638 4.93033 29.8638 5.45566 32.2998 6.50633C34.7358 7.557 36.8524 8.98166 38.6498 10.7803C40.4471 12.579 41.8724 14.6957 42.9258 17.1303C43.9791 19.565 44.5038 22.165 44.4998 24.9303C44.4958 27.6957 43.9704 30.2957 42.9238 32.7303C41.8771 35.165 40.4524 37.2817 38.6498 39.0803C36.8471 40.879 34.7304 42.3043 32.2998 43.3563C29.8691 44.4083 27.2691 44.933 24.4998 44.9303ZM24.4998 40.9303C26.2664 40.9303 27.9331 40.6723 29.4998 40.1563C31.0664 39.6403 32.4998 38.8983 33.7998 37.9303C32.4998 36.9637 31.0664 36.2223 29.4998 35.7063C27.9331 35.1903 26.2664 34.9317 24.4998 34.9303C22.7331 34.929 21.0664 35.1877 19.4998 35.7063C17.9331 36.225 16.4998 36.9663 15.1998 37.9303C16.4998 38.897 17.9331 39.639 19.4998 40.1563C21.0664 40.6737 22.7331 40.9317 24.4998 40.9303ZM24.4998 22.9303C25.3664 22.9303 26.0831 22.647 26.6498 22.0803C27.2164 21.5137 27.4998 20.797 27.4998 19.9303C27.4998 19.0637 27.2164 18.347 26.6498 17.7803C26.0831 17.2137 25.3664 16.9303 24.4998 16.9303C23.6331 16.9303 22.9164 17.2137 22.3498 17.7803C21.7831 18.347 21.4998 19.0637 21.4998 19.9303C21.4998 20.797 21.7831 21.5137 22.3498 22.0803C22.9164 22.647 23.6331 22.9303 24.4998 22.9303Z" fill="#1A1A1A"/>
</svg>