<svg xmlns="http://www.w3.org/2000/svg" width="44" height="44" viewBox="0 0 44 44" fill="none">
                <path d="M35.6164 38.0553L24.3289 26.7678C23.4331 27.4845 22.4029 28.0519 21.2383 28.4699C20.0737 28.888 18.8345 29.097 17.5206 29.097C14.2657 29.097 11.5113 27.9694 9.25742 25.7143C7.00351 23.4592 5.87595 20.7048 5.87476 17.4512C5.87356 14.1975 7.00112 11.4431 9.25742 9.18799C11.5137 6.93288 14.2681 5.80533 17.5206 5.80533C20.7731 5.80533 23.528 6.93288 25.7855 9.18799C28.043 11.4431 29.17 14.1975 29.1664 17.4512C29.1664 18.7651 28.9574 20.0043 28.5393 21.1689C28.1213 22.3335 27.5539 23.3637 26.8373 24.2595L38.1248 35.547L35.6164 38.0553ZM17.5206 25.5137C19.7602 25.5137 21.6641 24.7301 23.2324 23.163C24.8007 21.5959 25.5843 19.6919 25.5831 17.4512C25.5819 15.2104 24.7983 13.307 23.2324 11.7411C21.6665 10.1752 19.7626 9.39105 17.5206 9.38866C15.2786 9.38627 13.3753 10.1704 11.8105 11.7411C10.2458 13.3118 9.46167 15.2152 9.45809 17.4512C9.45451 19.6872 10.2387 21.5911 11.8105 23.163C13.3824 24.7349 15.2858 25.5184 17.5206 25.5137Z" fill="#1A1A1A"/>
              </svg>